<svg width="150" height="100" viewBox="0 0 150 100" xmlns="http://www.w3.org/2000/svg">
  <!-- Background gradient (circus tent colors) -->
  <defs>
    <radialGradient id="bg" cx="50%" cy="50%" r="70%">
      <stop offset="0%" style="stop-color:#8B0000;stop-opacity:1" />
      <stop offset="100%" style="stop-color:#000000;stop-opacity:1" />
    </radialGradient>
    <linearGradient id="gold" x1="0%" y1="0%" x2="100%" y2="100%">
      <stop offset="0%" style="stop-color:#FFD700;stop-opacity:1" />
      <stop offset="50%" style="stop-color:#FFA500;stop-opacity:1" />
      <stop offset="100%" style="stop-color:#FFD700;stop-opacity:1" />
    </linearGradient>
    <linearGradient id="red" x1="0%" y1="0%" x2="100%" y2="100%">
      <stop offset="0%" style="stop-color:#DC143C;stop-opacity:1" />
      <stop offset="100%" style="stop-color:#8B0000;stop-opacity:1" />
    </linearGradient>
  </defs>

  <!-- Background -->
  <rect width="150" height="100" fill="url(#bg)"/>

  <!-- Circus tent top (centered at x=75) -->
  <polygon points="75,10 45,40 105,40" fill="url(#red)" stroke="#FFD700" stroke-width="2"/>
  <polygon points="75,10 60,40 90,40" fill="#8B0000"/>

  <!-- Tent flag (centered) -->
  <polygon points="75,10 70,5 80,5" fill="url(#gold)"/>

  <!-- Tent stripes (symmetrical) -->
  <line x1="52.5" y1="40" x2="67.5" y2="10" stroke="#FFD700" stroke-width="1"/>
  <line x1="82.5" y1="10" x2="97.5" y2="40" stroke="#FFD700" stroke-width="1"/>

  <!-- Playing cards arranged in a centered fan -->
  <!-- Card 1 (Hearts) - leftmost -->
  <g transform="translate(25,52) rotate(-20)">
    <rect x="0" y="0" width="20" height="28" rx="2" fill="#F5F5DC" stroke="#8B0000" stroke-width="1"/>
    <path d="M10,8 C8,6 6,8 6,10 C6,12 10,16 10,16 C10,16 14,12 14,10 C14,8 12,6 10,8 Z" fill="#DC143C"/>
  </g>

  <!-- Card 2 (Diamonds) -->
  <g transform="translate(42,48) rotate(-10)">
    <rect x="0" y="0" width="20" height="28" rx="2" fill="#F5F5DC" stroke="#8B0000" stroke-width="1"/>
    <path d="M10,8 L14,14 L10,20 L6,14 Z" fill="#DC143C"/>
  </g>

  <!-- Card 3 (Clubs) - center card -->
  <g transform="translate(65,46) rotate(0)">
    <rect x="0" y="0" width="20" height="28" rx="2" fill="#F5F5DC" stroke="#8B0000" stroke-width="1"/>
    <circle cx="8" cy="12" r="2" fill="#000"/>
    <circle cx="12" cy="12" r="2" fill="#000"/>
    <circle cx="10" cy="16" r="2" fill="#000"/>
    <rect x="9" y="16" width="2" height="4" fill="#000"/>
  </g>

  <!-- Card 4 (Spades) -->
  <g transform="translate(88,48) rotate(10)">
    <rect x="0" y="0" width="20" height="28" rx="2" fill="#F5F5DC" stroke="#8B0000" stroke-width="1"/>
    <path d="M10,8 C8,6 6,8 6,12 C6,14 8,16 10,16 C12,16 14,14 14,12 C14,8 12,6 10,8 Z" fill="#000"/>
    <rect x="9" y="16" width="2" height="4" fill="#000"/>
  </g>

  <!-- Card 5 (Back of card) - rightmost -->
  <g transform="translate(105,52) rotate(20)">
    <rect x="0" y="0" width="20" height="28" rx="2" fill="url(#red)" stroke="#FFD700" stroke-width="1"/>
    <rect x="2" y="2" width="16" height="24" rx="1" fill="#8B0000"/>
    <circle cx="10" cy="14" r="6" fill="none" stroke="#FFD700" stroke-width="1"/>
  </g>

  <!-- Decorative circus elements (symmetrically placed) -->
  <!-- Stars positioned symmetrically -->
  <g fill="url(#gold)">
    <!-- Top left star -->
    <polygon points="30,20 31,23 34,23 32,25 33,28 30,26 27,28 28,25 26,23 29,23" transform="scale(0.7)"/>
    <!-- Top right star -->
    <polygon points="120,20 121,23 124,23 122,25 123,28 120,26 117,28 118,25 116,23 119,23" transform="scale(0.7)"/>
    <!-- Bottom left star -->
    <polygon points="20,85 21,88 24,88 22,90 23,93 20,91 17,93 18,90 16,88 19,88" transform="scale(0.6)"/>
    <!-- Bottom right star -->
    <polygon points="130,85 131,88 134,88 132,90 133,93 130,91 127,93 128,90 126,88 129,88" transform="scale(0.6)"/>
  </g>

  <!-- Circus ring/circle (properly positioned) -->
  <circle cx="75" cy="82" r="12" fill="none" stroke="url(#gold)" stroke-width="2" stroke-dasharray="3,2"/>
</svg>
